<svg xmlns="http://www.w3.org/2000/svg" viewBox="0 0 198.28 412.1"><defs><style>.cls-1{fill:#ea543e;}.cls-2{fill:#222;}</style></defs><title>S</title><g id="Calque_2" data-name="Calque 2"><g id="Calque_1-2" data-name="Calque 1"><path class="cls-1" d="M174.26,210.29q-3.36-4.44-7.27-9l-4,4.94-8.5-10-8,10-8-10-6.5,10-7.5-10-8,10-7-10-6.5,10-7.5-10-9,10-7.5-10-8,10-8.5-10-9.46,9.93,22.3,22.31q18.84,18.36,26.14,27.08a71.35,71.35,0,0,1,12,21.66q4.71,13,4.71,32.74,0,15.08-4.24,21.43T98.9,337.68q-19.31,0-19.31-30.14V257.15l-8.42-9-7.57,8.51-8.09-8.54-8,9-8-9-8,9-7.66-9-9,9-7.67-9-7.18,9v39.56q0,60.75,24.49,88.07t79.59,27.32q50.4,0,72.3-30.85t21.9-90.66q0-26.85-6.6-46.39A119.22,119.22,0,0,0,174.26,210.29Z"/><path class="cls-1" d="M174.26,210.29q-3.36-4.44-7.27-9l-4,4.94-8.5-10-8,10-8-10-6.5,10-7.5-10-8,10-7-10-6.5,10-7.5-10-9,10-7.5-10-8,10-8.5-10-9.46,9.93,22.3,22.31q18.84,18.36,26.14,27.08a71.35,71.35,0,0,1,12,21.66q4.71,13,4.71,32.74,0,15.08-4.24,21.43T98.9,337.68q-19.31,0-19.31-30.14V257.15l-8.42-9-7.57,8.51-8.09-8.54-8,9-8-9-8,9-7.66-9-9,9-7.67-9-7.18,9v39.56q0,60.75,24.49,88.07t79.59,27.32q50.4,0,72.3-30.85t21.9-90.66q0-26.85-6.6-46.39A119.22,119.22,0,0,0,174.26,210.29Z"/><path class="cls-2" d="M167,201.24h0l.21.25Z"/><path class="cls-2" d="M167.2,201.49c1,1.15,1.91,2.29,2.84,3.42Q168.66,203.22,167.2,201.49Z"/><path class="cls-2" d="M171.9,29q-24-29-78.65-29Q47.56,0,23.78,27.08T0,106q0,48,40.5,87.6l12.55,12.54,9.46-9.93,8.5,10,8-10,7.5,10,9-10,7.5,10,6.5-10,7,10,8-10,7.5,10,6.5-10,8,10,8-10,8.5,10,4-4.94Q158.3,191,146.94,179.91L99.85,134.7q-22.62-21.19-22.61-41,0-8.94,4.71-14.13t14.13-5.18c5.33,0,9.49,1.58,12.48,4.71S113,86.5,113,91.84l.47,27.79,7,9,7-9,6,9,6.67-9,7,9,7-9,6.33,8.55,7-8,8,8,7.1-8.47,7.9,8.47,5.41-8.55Q195.92,57.94,171.9,29Z"/></g></g></svg>